<svg viewBox="0 0 900 700" xmlns="http://www.w3.org/2000/svg" font-family="Segoe UI, Arial, sans-serif">
  <defs>
    <marker id="a" viewBox="0 0 10 10" refX="8" refY="5" markerWidth="6" markerHeight="6" orient="auto-start-reverse">
      <path d="M2 1L8 5L2 9" fill="none" stroke="context-stroke" stroke-width="1.5" stroke-linecap="round" stroke-linejoin="round"/>
    </marker>
  </defs>

  <rect x="20" y="10" width="860" height="380" rx="14" fill="#EFF6FF" stroke="#3B82F6" stroke-width="1" stroke-dasharray="6 3"/>
  <text x="450" y="38" text-anchor="middle" font-size="15" font-weight="600" fill="#1E40AF">Chrome Extension - Browser Layer</text>

  <rect x="40" y="55" width="145" height="58" rx="8" fill="#DBEAFE" stroke="#3B82F6" stroke-width="0.8"/>
  <text x="112" y="78" text-anchor="middle" font-size="11" font-weight="600" fill="#1E3A5F">Sensing Layer</text>
  <text x="112" y="94" text-anchor="middle" font-size="9" fill="#3B6EB0">Scroll, dwell, mouse</text>

  <rect x="200" y="55" width="145" height="58" rx="8" fill="#DBEAFE" stroke="#3B82F6" stroke-width="0.8"/>
  <text x="272" y="78" text-anchor="middle" font-size="11" font-weight="600" fill="#1E3A5F">Hybrid Scorer</text>
  <text x="272" y="94" text-anchor="middle" font-size="9" fill="#3B6EB0">FK + Jargon + Struct</text>

  <rect x="360" y="55" width="145" height="58" rx="8" fill="#DBEAFE" stroke="#3B82F6" stroke-width="0.8"/>
  <text x="432" y="78" text-anchor="middle" font-size="11" font-weight="600" fill="#1E3A5F">Element Scorer</text>
  <text x="432" y="94" text-anchor="middle" font-size="9" fill="#3B6EB0">CAS + Tier 1 flags</text>

  <rect x="520" y="55" width="145" height="58" rx="8" fill="#DBEAFE" stroke="#3B82F6" stroke-width="0.8"/>
  <text x="592" y="78" text-anchor="middle" font-size="11" font-weight="600" fill="#1E3A5F">DOM Transformer</text>
  <text x="592" y="94" text-anchor="middle" font-size="9" fill="#3B6EB0">Hide ads, modals, sidebar</text>

  <rect x="680" y="55" width="145" height="58" rx="8" fill="#E0E7FF" stroke="#6366F1" stroke-width="0.8"/>
  <text x="752" y="78" text-anchor="middle" font-size="11" font-weight="600" fill="#312E81">Profile CSS</text>
  <text x="752" y="94" text-anchor="middle" font-size="9" fill="#4338CA">ADHD / Autism / Dyslexia</text>

  <line x1="185" y1="84" x2="198" y2="84" stroke="#3B82F6" stroke-width="1" marker-end="url(#a)"/>
  <line x1="345" y1="84" x2="358" y2="84" stroke="#3B82F6" stroke-width="1" marker-end="url(#a)"/>
  <line x1="505" y1="84" x2="518" y2="84" stroke="#3B82F6" stroke-width="1" marker-end="url(#a)"/>
  <line x1="665" y1="84" x2="678" y2="84" stroke="#6366F1" stroke-width="1" marker-end="url(#a)"/>

  <rect x="250" y="140" width="400" height="48" rx="8" fill="#FEF3C7" stroke="#F59E0B" stroke-width="0.8"/>
  <text x="450" y="162" text-anchor="middle" font-size="12" font-weight="600" fill="#92400E">Three-Tier Router - Sort by composite, hard-cap at 5</text>
  <text x="450" y="178" text-anchor="middle" font-size="9" fill="#B45309">Paragraphs ranked hardest-first, split into Tier A / B / C</text>

  <line x1="432" y1="113" x2="450" y2="138" stroke="#F59E0B" stroke-width="1" marker-end="url(#a)"/>

  <rect x="40" y="215" width="200" height="55" rx="8" fill="#D1FAE5" stroke="#10B981" stroke-width="0.8"/>
  <text x="140" y="236" text-anchor="middle" font-size="11" font-weight="600" fill="#065F46">Tier A: Client-side</text>
  <text x="140" y="252" text-anchor="middle" font-size="9" fill="#047857">Tooltips, splitting - 0 API calls</text>
  <text x="140" y="264" text-anchor="middle" font-size="9" fill="#047857">~70% of flagged text</text>

  <rect x="290" y="215" width="200" height="55" rx="8" fill="#FEE2E2" stroke="#EF4444" stroke-width="0.8"/>
  <text x="390" y="236" text-anchor="middle" font-size="11" font-weight="600" fill="#7F1D1D">Tier B: Server AI</text>
  <text x="390" y="252" text-anchor="middle" font-size="9" fill="#991B1B">Auto-send top 5 hardest</text>
  <text x="390" y="264" text-anchor="middle" font-size="9" fill="#991B1B">Hard-capped, batched</text>

  <rect x="540" y="215" width="200" height="55" rx="8" fill="#EDE9FE" stroke="#7C3AED" stroke-width="0.8"/>
  <text x="640" y="236" text-anchor="middle" font-size="11" font-weight="600" fill="#4C1D95">Tier C: On-demand</text>
  <text x="640" y="252" text-anchor="middle" font-size="9" fill="#5B21B6">"Simplify this" button</text>
  <text x="640" y="264" text-anchor="middle" font-size="9" fill="#5B21B6">1 call per click, queued</text>

  <line x1="350" y1="188" x2="140" y2="213" stroke="#10B981" stroke-width="1" marker-end="url(#a)"/>
  <line x1="450" y1="188" x2="390" y2="213" stroke="#EF4444" stroke-width="1" marker-end="url(#a)"/>
  <line x1="550" y1="188" x2="640" y2="213" stroke="#7C3AED" stroke-width="1" marker-end="url(#a)"/>

  <rect x="40" y="300" width="200" height="42" rx="8" fill="#D1FAE5" stroke="#10B981" stroke-width="0.8"/>
  <text x="140" y="325" text-anchor="middle" font-size="10" font-weight="600" fill="#065F46">Client Transforms Module</text>

  <rect x="290" y="300" width="200" height="42" rx="8" fill="#EDE9FE" stroke="#7C3AED" stroke-width="0.8"/>
  <text x="390" y="325" text-anchor="middle" font-size="10" font-weight="600" fill="#4C1D95">Request Queue (serialized)</text>

  <rect x="540" y="300" width="200" height="42" rx="8" fill="#DBEAFE" stroke="#3B82F6" stroke-width="0.8"/>
  <text x="640" y="325" text-anchor="middle" font-size="10" font-weight="600" fill="#1E3A5F">Progressive Disclosure</text>

  <rect x="770" y="300" width="95" height="42" rx="8" fill="#F3F4F6" stroke="#6B7280" stroke-width="0.8"/>
  <text x="817" y="320" text-anchor="middle" font-size="9" font-weight="600" fill="#374151">Learning</text>
  <text x="817" y="333" text-anchor="middle" font-size="9" fill="#6B7280">Layer</text>

  <line x1="140" y1="270" x2="140" y2="298" stroke="#10B981" stroke-width="1" marker-end="url(#a)"/>
  <line x1="390" y1="270" x2="390" y2="298" stroke="#EF4444" stroke-width="1" marker-end="url(#a)"/>
  <line x1="640" y1="270" x2="640" y2="298" stroke="#7C3AED" stroke-width="1" marker-end="url(#a)"/>

  <text x="450" y="372" text-anchor="middle" font-size="10" fill="#6B7280">REST POST /api/v1/process (batched, max 5, serialized via queue)</text>

  <line x1="390" y1="342" x2="390" y2="410" stroke="#EF4444" stroke-width="2" marker-end="url(#a)"/>

  <rect x="20" y="420" width="860" height="265" rx="14" fill="#FFF7ED" stroke="#F97316" stroke-width="1" stroke-dasharray="6 3"/>
  <text x="450" y="448" text-anchor="middle" font-size="15" font-weight="600" fill="#9A3412">Python Backend - FastAPI + LangGraph</text>

  <rect x="40" y="465" width="180" height="48" rx="8" fill="#FED7AA" stroke="#F97316" stroke-width="0.8"/>
  <text x="130" y="486" text-anchor="middle" font-size="11" font-weight="600" fill="#7C2D12">Rate Limiter</text>
  <text x="130" y="502" text-anchor="middle" font-size="9" fill="#9A3412">30 req/min per IP</text>

  <rect x="250" y="465" width="180" height="48" rx="8" fill="#F3F4F6" stroke="#6B7280" stroke-width="0.8"/>
  <text x="340" y="486" text-anchor="middle" font-size="11" font-weight="600" fill="#374151">Content Cache</text>
  <text x="340" y="502" text-anchor="middle" font-size="9" fill="#6B7280">SHA256 key, 24hr TTL</text>

  <rect x="460" y="465" width="220" height="48" rx="8" fill="#FEE2E2" stroke="#EF4444" stroke-width="0.8"/>
  <text x="570" y="486" text-anchor="middle" font-size="11" font-weight="600" fill="#7F1D1D">LangGraph Pipeline</text>
  <text x="570" y="502" text-anchor="middle" font-size="9" fill="#991B1B">Multi-agent orchestration</text>

  <line x1="220" y1="489" x2="248" y2="489" stroke="#6B7280" stroke-width="1" marker-end="url(#a)"/>
  <line x1="430" y1="489" x2="458" y2="489" stroke="#EF4444" stroke-width="1" marker-end="url(#a)"/>

  <rect x="40" y="545" width="170" height="40" rx="8" fill="#D1FAE5" stroke="#10B981" stroke-width="0.8"/>
  <text x="125" y="569" text-anchor="middle" font-size="11" font-weight="600" fill="#065F46">Simplifier Agent</text>

  <rect x="240" y="545" width="170" height="40" rx="8" fill="#D1FAE5" stroke="#10B981" stroke-width="0.8"/>
  <text x="325" y="569" text-anchor="middle" font-size="11" font-weight="600" fill="#065F46">Summarizer Agent</text>

  <rect x="440" y="545" width="170" height="40" rx="8" fill="#F3F4F6" stroke="#6B7280" stroke-width="0.8"/>
  <text x="525" y="569" text-anchor="middle" font-size="11" font-weight="600" fill="#374151">Tone Analyzer</text>

  <text x="125" y="600" text-anchor="middle" font-size="9" fill="#6B7280">LLM: rewrite at grade level</text>
  <text x="325" y="600" text-anchor="middle" font-size="9" fill="#6B7280">LLM: TL;DR (ADHD only)</text>
  <text x="525" y="600" text-anchor="middle" font-size="9" fill="#6B7280">Rule-based (0 API calls)</text>

  <line x1="510" y1="513" x2="125" y2="543" stroke="#10B981" stroke-width="1" marker-end="url(#a)"/>
  <line x1="545" y1="513" x2="325" y2="543" stroke="#10B981" stroke-width="1" marker-end="url(#a)"/>
  <line x1="580" y1="513" x2="525" y2="543" stroke="#6B7280" stroke-width="1" marker-end="url(#a)"/>

  <rect x="140" y="630" width="400" height="40" rx="8" fill="#D1FAE5" stroke="#10B981" stroke-width="0.8"/>
  <text x="340" y="655" text-anchor="middle" font-size="11" font-weight="600" fill="#065F46">Response: simplified + TL;DR + tone flags + grade level</text>

  <line x1="325" y1="585" x2="340" y2="628" stroke="#10B981" stroke-width="1" marker-end="url(#a)"/>

  <path d="M540 650 L780 650 L780 365 L640 365 L640 342" fill="none" stroke="#3B82F6" stroke-width="1.5" stroke-dasharray="4 3" marker-end="url(#a)"/>
  <text x="795" y="510" text-anchor="start" font-size="10" fill="#6B7280" transform="rotate(90, 795, 510)">Response back to extension</text>
</svg>
